HIERARCHY
ROOT Hips
{
	OFFSET 0.00000 0.00000 0.00000
	CHANNELS 6 Xposition Yposition Zposition Zrotation Yrotation Xrotation 
	JOINT LHipJoint
	{
		OFFSET 0 0 0
		CHANNELS 3 Zrotation Yrotation Xrotation
		JOINT LeftUpLeg
		{
			OFFSET 1.54859 -1.61379 0.86856
			CHANNELS 3 Zrotation Yrotation Xrotation
			JOINT LeftLeg
			{
				OFFSET 2.25087 -6.18423 0.00000
				CHANNELS 3 Zrotation Yrotation Xrotation
				JOINT LeftFoot
				{
					OFFSET 2.40328 -6.60297 0.00000
					CHANNELS 3 Zrotation Yrotation Xrotation
					JOINT LeftToeBase
					{
						OFFSET 0.17435 -0.47901 2.02453
						CHANNELS 3 Zrotation Yrotation Xrotation
						End Site
						{
							OFFSET 0.00000 -0.00000 1.04844
						}
					}
				}
			}
		}
	}
	JOINT RHipJoint
	{
		OFFSET 0 0 0
		CHANNELS 3 Zrotation Yrotation Xrotation
		JOINT RightUpLeg
		{
			OFFSET -1.54669 -1.61379 0.86856
			CHANNELS 3 Zrotation Yrotation Xrotation
			JOINT RightLeg
			{
				OFFSET -2.28132 -6.26789 0.00000
				CHANNELS 3 Zrotation Yrotation Xrotation
				JOINT RightFoot
				{
					OFFSET -2.51636 -6.91365 0.00000
					CHANNELS 3 Zrotation Yrotation Xrotation
					JOINT RightToeBase
					{
						OFFSET -0.15124 -0.41552 2.21090
						CHANNELS 3 Zrotation Yrotation Xrotation
						End Site
						{
							OFFSET -0.00000 -0.00000 1.13399
						}
					}
				}
			}
		}
	}
	JOINT LowerBack
	{
		OFFSET 0 0 0
		CHANNELS 3 Zrotation Yrotation Xrotation
		JOINT Spine
		{
			OFFSET -0.04287 2.26161 -0.25690
			CHANNELS 3 Zrotation Yrotation Xrotation
			JOINT Spine1
			{
				OFFSET 0.02248 2.28395 -0.10140
				CHANNELS 3 Zrotation Yrotation Xrotation
				JOINT Neck
				{
					OFFSET 0 0 0
					CHANNELS 3 Zrotation Yrotation Xrotation
					JOINT Neck1
					{
						OFFSET -0.11644 1.38496 0.11345
						CHANNELS 3 Zrotation Yrotation Xrotation
						JOINT Head
						{
							OFFSET 0.29383 1.36600 0.06642
							CHANNELS 3 Zrotation Yrotation Xrotation
							End Site
							{
								OFFSET 0.11075 1.41395 -0.00294
							}
						}
					}
				}
				JOINT LeftShoulder
				{
					OFFSET 0 0 0
					CHANNELS 3 Zrotation Yrotation Xrotation
					JOINT LeftArm
					{
						OFFSET 3.51628 0.59542 -0.30346
						CHANNELS 3 Zrotation Yrotation Xrotation
						JOINT LeftForeArm
						{
							OFFSET 4.76405 -0.00000 0.00000
							CHANNELS 3 Zrotation Yrotation Xrotation
							JOINT LeftHand
							{
								OFFSET 3.13759 -0.00000 -0.00000
								CHANNELS 3 Zrotation Yrotation Xrotation
								JOINT LeftFingerBase
								{
									OFFSET 0 0 0
									CHANNELS 3 Zrotation Yrotation Xrotation
									JOINT LeftHandIndex1
									{
										OFFSET 0.73226 -0.00000 -0.00000
										CHANNELS 3 Zrotation Yrotation Xrotation
										End Site
										{
											OFFSET 0.59037 -0.00000 -0.00000
										}
									}
								}
								JOINT LThumb
								{
									OFFSET 0 0 0
									CHANNELS 3 Zrotation Yrotation Xrotation
									End Site
									{
										OFFSET 0.59938 -0.00000 0.59938
									}
								}
							}
						}
					}
				}
				JOINT RightShoulder
				{
					OFFSET 0 0 0
					CHANNELS 3 Zrotation Yrotation Xrotation
					JOINT RightArm
					{
						OFFSET -3.30990 0.84213 -0.36430
						CHANNELS 3 Zrotation Yrotation Xrotation
						JOINT RightForeArm
						{
							OFFSET -5.10161 -0.00000 -0.00000
							CHANNELS 3 Zrotation Yrotation Xrotation
							JOINT RightHand
							{
								OFFSET -3.23267 -0.00000 -0.00000
								CHANNELS 3 Zrotation Yrotation Xrotation
								JOINT RightFingerBase
								{
									OFFSET 0 0 0
									CHANNELS 3 Zrotation Yrotation Xrotation
									JOINT RightHandIndex1
									{
										OFFSET -0.70200 -0.00000 -0.00000
										CHANNELS 3 Zrotation Yrotation Xrotation
										End Site
										{
											OFFSET -0.56597 -0.00000 -0.00000
										}
									}
								}
								JOINT RThumb
								{
									OFFSET 0 0 0
									CHANNELS 3 Zrotation Yrotation Xrotation
									End Site
									{
										OFFSET -0.57461 -0.00000 0.57461
									}
								}
							}
						}
					}
				}
			}
		}
	}
}
MOTION
Frames: 16
Frame Time: .0083333
-34.3227 14.6959 11.4891 0 0 0 0 0 0 -21 0 0 0 0 0 0 0 0 0 0 0 0 0 0 21 0 0 0 0 0 0 0 0 0 0 0 0 0 0 0 0 0 0 0 0 0 0 -16 0 0 21 0 0 11 0 0 0 -8 0 0 0 0 0 0 0 0 0 0 0 0 0 0 0 0 0 0 0 0 8 0 0 0 0 0 0 0 0 0 0 0 0 0 0 0 0 0
-34.3227 14.6959 11.4891 -165.2440 75.3919 -154.1630 0.0000 0.0000 0.0000 -5.4474 10.7946 -46.7437 15.8558 19.5832 77.8018 1.3947 -3.5826 -21.4410 0.0558 -1.5242 -4.1924 0.0000 0.0000 0.0000 9.1991 -3.7334 -12.0148 -3.8141 -11.9089 35.4104 -2.8214 -0.0287 -31.8667 -4.2148 12.4409 -37.3101 3.0206 0.2152 24.6345 4.9765 2.3403 10.4239 3.0368 1.5855 -2.3085 -7.6030 -1.1341 -12.2351 8.9559 1.1519 -15.9660 4.0291 1.2369 -2.8457 -0.0000 -0.0000 0.0000 -89.1600 16.9526 43.0781 18.6188 -28.9423 -4.8450 -0.0000 0.0000 -25.5630 27.3816 28.6267 13.9363 -7.1250 0.0000 -0.0000 -3.9477 61.5157 -1.5885 -0.0000 -0.0000 0.0000 78.5698 32.7802 55.2891 -99.8023 59.6338 -68.4786 0.0000 0.0000 27.2999 -35.7748 31.5726 -20.6699 7.1250 -0.0000 -0.0000 -2.2756 7.1367 -2.5425
-34.2213 14.6537 11.3747 -163.6130 75.2899 -152.7510 0.0000 0.0000 0.0000 -3.9747 10.8663 -47.7448 15.9589 19.6039 78.1092 1.4380 -3.3430 -21.8271 0.0472 -1.4023 -3.8566 0.0000 0.0000 0.0000 9.2338 -4.1276 -10.8545 -3.6157 -11.6306 34.4375 -2.8122 0.0122 -31.8014 -4.3347 12.5930 -37.8633 3.8211 0.4335 25.3410 4.5472 2.8434 10.6322 1.9727 1.8763 -2.3792 -7.7190 -1.4936 -11.6519 9.8334 0.8065 -16.6431 4.3257 1.0513 -3.0959 -0.0000 -0.0000 0.0000 -87.7012 18.3556 43.6684 17.6396 -27.6932 -4.3805 -0.0000 0.0000 -24.7029 27.2850 29.5088 14.2552 -7.1250 0.0000 -0.0000 -4.5043 62.4149 -1.9086 -0.0000 -0.0000 0.0000 79.0667 34.0972 54.2153 -91.7764 59.9881 -61.5383 0.0000 0.0000 28.9086 -37.1492 32.4256 -22.1095 7.1250 -0.0000 -0.0000 -2.8173 8.5329 -3.2077
-34.1226 14.5956 11.2635 -162.4330 75.1243 -151.6090 0.0000 0.0000 0.0000 -2.5372 10.6841 -48.8318 15.9636 19.6048 78.1232 1.4786 -3.3516 -22.1436 0.0014 -0.2457 -0.6751 0.0000 0.0000 0.0000 9.2054 -4.6557 -9.9675 -3.4303 -11.3611 33.5074 -2.7364 -0.6153 -31.5667 -4.6652 12.9965 -39.3555 3.7111 0.8746 25.7235 4.7852 3.4570 10.9065 2.1272 2.1908 -2.2874 -8.7685 -1.8588 -11.1614 10.7939 0.5379 -17.2247 4.8146 0.9516 -3.3060 0.0000 0.0000 0.0000 -87.3757 19.6044 44.1147 16.7632 -26.5445 -3.9809 -0.0000 0.0000 -23.8353 27.5717 29.9471 14.6097 -7.1250 0.0000 -0.0000 -4.3882 62.9489 -1.9144 0.0000 0.0000 0.0000 78.4237 35.3689 52.6154 -83.1614 59.8225 -54.0812 0.0000 0.0000 29.4373 -37.8245 33.8208 -23.3702 7.1250 -0.0000 -0.0000 -2.8193 10.2807 -3.2808
-34.0107 14.5543 11.1568 -160.7260 75.0485 -149.8500 0.0000 0.0000 0.0000 -1.1342 10.9846 -49.9963 15.8931 19.5907 77.9131 1.5178 -3.1299 -22.4885 0.0003 0.1091 0.2997 0.0000 0.0000 0.0000 9.3846 -4.7183 -8.9141 -3.2049 -11.0196 32.3459 -2.6523 -1.1072 -31.2446 -4.8164 13.1740 -40.0232 3.6240 1.3349 25.7237 4.8740 4.0660 11.3968 2.1297 2.5179 -1.7658 -9.9598 -2.1959 -11.3211 11.9385 0.3703 -17.3914 5.3896 0.9297 -3.2907 0.0000 -0.0000 0.0000 -86.7667 20.5261 44.5565 16.2688 -25.8837 -3.7625 -0.0000 0.0000 -23.3237 28.0315 30.2607 15.0189 -7.1250 0.0000 -0.0000 -3.9922 63.4006 -1.7836 0.0000 -0.0000 0.0000 78.1019 37.1089 50.8762 -73.0947 58.8921 -45.4140 0.0000 0.0000 30.6324 -39.2867 34.2449 -24.7200 7.1250 -0.0000 -0.0000 -3.4781 11.2855 -4.0983
-33.8906 14.5098 11.0473 -157.8360 74.8406 -146.9650 0.0000 0.0000 0.0000 0.6010 11.7378 -51.3915 15.8228 19.5764 77.7034 1.5037 -2.7993 -22.4468 0.0003 0.1146 0.3148 0.0000 0.0000 0.0000 9.9913 -4.4378 -7.6676 -2.9735 -10.6520 31.1150 -2.5431 -2.2883 -31.0361 -5.0959 13.4910 -41.2354 3.8138 1.9183 25.5656 4.9099 4.8533 11.5717 1.8707 2.9224 -1.4970 -9.5417 -2.4033 -9.6298 11.9832 0.0138 -18.6014 5.3512 0.6758 -3.8795 -0.0000 0.0000 0.0000 -85.4423 22.3533 45.5399 16.2389 -25.8435 -3.7495 -0.0000 0.0000 -23.3506 28.2628 31.2598 15.5878 -7.1250 0.0000 -0.0000 -4.2678 64.5068 -2.0171 -0.0000 0.0000 0.0000 78.1787 38.1702 48.7740 -62.9523 57.0467 -36.8083 0.0000 0.0000 31.4590 -40.3486 34.5185 -25.7061 7.1250 -0.0000 -0.0000 -3.9582 11.9956 -4.7044
-33.7631 14.4777 10.9261 -155.8470 74.6273 -144.9250 0.0000 0.0000 0.0000 2.0214 12.1434 -52.6044 15.6869 19.5480 77.2975 1.5016 -2.3026 -22.5390 0.0029 0.3504 0.9628 0.0000 0.0000 0.0000 10.3260 -4.3869 -6.3552 -2.7115 -10.2128 29.6685 -2.3323 -4.0383 -30.5071 -5.5851 14.0139 -43.2931 4.2772 2.3717 25.6075 4.6756 5.5583 12.0196 1.2030 3.3260 -0.9587 -9.4343 -3.2222 -11.0592 12.4543 -0.8979 -18.4144 5.4683 0.2782 -3.4860 -0.0000 -0.0000 0.0000 -83.7897 23.3393 46.7698 16.4893 -26.1796 -3.8593 -0.0000 0.0000 -24.0561 28.5783 32.3300 16.2417 -7.1250 0.0000 -0.0000 -4.5247 65.7076 -2.2647 -0.0000 -0.0000 0.0000 78.3920 40.5930 45.9461 -53.0075 54.1387 -28.5942 0.0000 0.0000 31.4864 -40.4429 36.3816 -26.8205 7.1250 -0.0000 -0.0000 -3.4599 14.0212 -4.2017
-33.6272 14.4404 10.8007 -155.5360 74.6010 -144.3960 0.0000 0.0000 0.0000 2.7394 12.4339 -53.7546 15.4950 19.5063 76.7234 1.5288 -1.4580 -22.9600 0.0006 -0.1520 -0.4177 0.0000 0.0000 0.0000 10.0920 -4.4627 -5.0378 -2.4396 -9.7273 28.0980 -2.1465 -5.2778 -29.9565 -5.9326 14.3628 -44.7108 4.0692 2.9261 25.6522 4.3332 6.1917 12.0015 0.7871 3.6337 -0.9791 -9.5506 -3.7572 -11.0127 13.3622 -1.5506 -18.2179 5.7679 -0.0715 -3.3293 0.0000 0.0000 0.0000 -82.0415 25.2835 47.8945 17.1070 -26.9986 -4.1358 -0.0000 0.0000 -25.3148 29.3107 33.2419 17.1060 -7.1250 0.0000 -0.0000 -4.1668 66.8663 -2.1963 0.0000 0.0000 0.0000 79.0342 42.6100 43.1448 -43.0192 49.7603 -20.7154 0.0000 0.0000 33.6775 -41.3527 36.8894 -27.8489 7.1250 -0.0000 -0.0000 -3.7672 14.9311 -4.6191
-33.4788 14.4035 10.6696 -155.3110 74.4415 -143.9040 0.0000 0.0000 0.0000 3.4056 12.8449 -55.0007 15.2868 19.4589 76.0991 1.5313 -0.6604 -23.2080 0.0246 -1.0133 -2.7853 0.0000 0.0000 0.0000 9.9635 -4.3647 -3.5204 -2.1689 -9.2094 26.4525 -2.1759 -4.8474 -29.9250 -5.7355 14.1670 -43.9107 3.7052 3.5377 25.0855 4.2073 6.8477 12.1506 0.7466 3.9565 -0.5636 -9.8224 -4.1211 -10.1026 13.8733 -2.0169 -18.6927 5.9926 -0.3380 -3.5371 -0.0000 0.0000 0.0000 -80.5379 27.0402 48.9788 17.9565 -28.1014 -4.5287 -0.0000 0.0000 -26.8186 30.0951 34.1411 18.0182 -7.1250 0.0000 -0.0000 -3.7346 68.0330 -2.0676 -0.0000 0.0000 0.0000 79.1406 44.8714 39.5982 -34.6340 44.5490 -14.5560 0.0000 0.0000 35.9504 -40.1541 37.1461 -26.9972 7.1250 -0.0000 -0.0000 -3.0813 14.7097 -3.7674
-33.3304 14.3704 10.5360 -154.6570 73.8687 -142.8570 0.0000 0.0000 0.0000 4.3895 13.1593 -56.5284 15.0923 19.4125 75.5147 1.4801 -0.5868 -22.8337 0.0282 -1.0833 -2.9779 0.0000 0.0000 0.0000 10.2836 -4.2064 -2.0735 -1.9111 -8.6783 24.7941 -2.1188 -4.8301 -29.5570 -5.5676 13.9958 -43.2205 3.4037 4.0858 24.8456 4.3928 7.4637 11.9688 0.9653 4.2297 -0.7098 -10.4241 -4.6276 -9.7196 14.4026 -2.6914 -18.6212 6.2602 -0.6782 -3.4625 0.0000 -0.0000 0.0000 -79.4589 29.1181 49.7179 19.0120 -29.4335 -5.0367 -0.0000 0.0000 -28.0084 30.3089 34.6011 18.3635 -7.1250 0.0000 -0.0000 -3.7794 68.5737 -2.1387 0.0000 -0.0000 0.0000 78.7553 46.6701 35.4741 -27.9169 39.0396 -10.0713 0.0000 0.0000 38.1108 -38.6572 36.6029 -25.4997 7.1250 -0.0000 -0.0000 -2.4806 13.5502 -2.9952
-33.1846 14.3289 10.4001 -154.9260 73.2312 -142.5700 0.0000 0.0000 0.0000 5.1017 13.1801 -58.1842 14.9291 19.3720 75.0229 1.3966 -0.7080 -22.1339 0.0557 -1.5233 -4.1900 0.0000 0.0000 0.0000 10.4340 -4.1341 -0.7057 -1.6601 -8.1190 23.0760 -1.9534 -5.5623 -28.8701 -5.5978 14.0269 -43.3455 3.3359 4.6423 24.3273 4.2557 8.1042 11.7872 0.7372 4.5338 -0.6502 -10.5541 -5.2588 -9.0413 14.9242 -3.5613 -18.8661 6.4520 -1.1536 -3.5070 -0.0000 -0.0000 0.0000 -77.3454 30.8746 51.0360 20.3151 -31.0201 -5.6929 -0.0000 0.0000 -29.3974 29.9822 34.1978 17.9662 -7.1250 0.0000 -0.0000 -3.9332 68.0568 -2.1798 -0.0000 -0.0000 0.0000 78.4278 48.3326 29.7953 -22.3331 33.3515 -6.7681 0.0000 0.0000 41.0335 -38.3683 35.1873 -24.5231 7.1250 -0.0000 -0.0000 -2.7344 11.9434 -3.2443
-33.0293 14.2907 10.2548 -156.1060 72.8388 -143.3450 0.0000 0.0000 0.0000 5.2630 13.2508 -59.4186 14.7480 19.3254 74.4765 1.3113 -0.7362 -21.4277 0.1779 -2.7171 -7.4921 0.0000 0.0000 0.0000 10.0954 -4.1484 1.1011 -1.4061 -7.5005 21.2068 -1.9443 -5.1146 -28.5745 -5.3010 13.7150 -42.1076 3.0609 5.2220 23.9011 3.9333 8.7374 11.7105 0.4368 4.8380 -0.5134 -11.0869 -5.9380 -8.5371 15.8727 -4.4362 -18.8910 6.8427 -1.6167 -3.4184 -0.0000 -0.0000 0.0000 -75.0248 32.1519 52.3082 21.3130 -32.1919 -6.2159 -0.0000 0.0000 -30.9950 29.2223 32.3385 16.6588 -7.1250 0.0000 -0.0000 -3.6887 65.9032 -1.8624 -0.0000 -0.0000 0.0000 77.9170 50.0221 22.3410 -17.7224 27.8003 -4.4190 0.0000 0.0000 43.5897 -33.2289 34.3631 -20.2925 7.1250 -0.0000 -0.0000 -0.2280 9.2835 -0.2618
-32.8704 14.2467 10.1009 -157.1560 72.4403 -144.2000 0.0000 0.0000 0.0000 5.4095 13.3890 -60.3222 14.6011 19.2863 74.0322 1.2302 -1.1517 -20.6228 0.2739 -3.3663 -9.3004 0.0000 0.0000 0.0000 9.7578 -4.5175 2.7639 -1.1618 -6.8429 19.2507 -1.4096 -7.7636 -26.4379 -6.0451 14.4719 -45.1624 2.6454 5.8811 23.6674 3.8164 9.4832 11.7308 0.3949 5.1948 -0.4146 -12.1328 -6.7033 -8.3148 17.0098 -5.4271 -18.5206 7.3556 -2.1085 -3.1088 -0.0000 0.0000 0.0000 -73.1677 32.6842 53.4791 22.0123 -32.9909 -6.5925 -0.0000 0.0000 -32.2067 28.4007 32.1243 16.0415 -7.1250 0.0000 -0.0000 -4.6223 65.4434 -2.2854 -0.0000 0.0000 0.0000 76.4039 51.4997 12.3716 -13.8302 22.4915 -2.7628 0.0000 0.0000 45.3771 -30.6402 30.9842 -16.9586 7.1250 -0.0000 -0.0000 0.4506 4.9315 0.4876
-32.6986 14.2314 9.9343 -158.2860 71.9071 -145.0770 0.0000 0.0000 0.0000 5.2873 13.8591 -61.3312 14.4998 19.2587 73.7251 1.1197 -2.0979 -19.4125 0.3941 -4.0309 -11.1637 0.0000 0.0000 0.0000 9.5042 -5.1227 4.6937 -0.9330 -6.1529 17.2286 -0.9924 -9.4746 -24.4917 -6.5145 14.9091 -47.0134 2.4597 6.4410 23.5088 3.5508 10.1462 11.7058 0.0845 5.5218 -0.3401 -12.4540 -7.6474 -8.1367 17.9978 -6.6485 -18.5881 7.6893 -2.7428 -2.9009 -0.0000 -0.0000 0.0000 -71.1811 33.0462 54.3809 23.0309 -34.1226 -7.1556 -0.0000 0.0000 -32.8489 28.0986 32.1554 15.8631 -7.1250 0.0000 -0.0000 -5.0310 65.3890 -2.4817 -0.0000 -0.0000 0.0000 74.5758 52.6714 -0.7403 -10.6310 17.7205 -1.6619 0.0000 0.0000 46.9050 -28.6568 25.8832 -13.4182 7.1250 -0.0000 -0.0000 0.6866 -1.0414 0.6740
-32.5137 14.2066 9.7543 -160.2810 71.4742 -146.8490 0.0000 0.0000 0.0000 4.8488 13.8694 -62.0000 14.4855 19.2547 73.6818 1.0288 -2.8082 -18.4360 0.5960 -4.9423 -13.7440 0.0000 0.0000 0.0000 8.8624 -4.9709 6.8355 -0.7538 -5.5454 15.4709 -0.7897 -9.7510 -23.0117 -6.4422 14.8436 -46.7318 2.0910 6.9958 23.3209 3.1483 10.7664 11.7374 -0.2471 5.8286 -0.1892 -12.5340 -8.5088 -7.3140 18.9752 -7.7616 -19.2653 8.0238 -3.3675 -2.9881 -0.0000 -0.0000 0.0000 -68.8232 33.3600 55.5825 24.9540 -36.1569 -8.2627 -0.0000 0.0000 -33.1240 28.0266 33.9241 16.5455 -7.1250 0.0000 -0.0000 -6.3787 67.1826 -3.4116 -0.0000 -0.0000 0.0000 72.1779 53.2469 -16.5776 -8.2212 13.9107 -1.0046 0.0000 0.0000 48.4431 -27.9449 22.6300 -11.5365 7.1250 -0.0000 -0.0000 0.6414 -4.7186 0.5865
-32.3205 14.1535 9.5579 -162.9880 71.1276 -149.3470 0.0000 0.0000 0.0000 4.0326 13.6942 -62.4723 14.5569 19.2743 73.8982 0.9552 -3.3168 -17.6542 0.8610 -5.9170 -16.5439 0.0000 0.0000 0.0000 7.8456 -4.7012 9.1402 -0.5992 -4.9552 13.7809 -0.4915 -10.6880 -21.1201 -6.4892 14.8862 -46.9149 1.5044 7.5324 22.9102 2.7371 11.3406 11.9610 -0.4039 6.1188 0.2462 -12.9476 -9.3029 -6.4591 20.2907 -8.7014 -20.1000 8.5472 -3.8996 -3.0969 -0.0000 0.0000 0.0000 -66.9004 33.0781 56.6751 26.4482 -37.6479 -9.1600 -0.0000 0.0000 -33.1452 28.6290 34.4771 17.1715 -7.1250 0.0000 -0.0000 -6.0061 67.9282 -3.3137 -0.0000 0.0000 0.0000 68.9471 53.3613 -34.3041 -6.8565 11.6829 -0.7023 0.0000 0.0000 46.4888 -24.1714 24.1682 -10.4122 7.1250 -0.0000 -0.0000 3.1663 -3.8228 2.9528
